<mxfile host="app.diagrams.net" modified="2023-12-31T18:33:20.768Z" agent="Mozilla/5.0 (Windows NT 10.0; Win64; x64) AppleWebKit/537.36 (KHTML, like Gecko) Chrome/120.0.0.0 Safari/537.36" etag="BwDMQ5kIWVlFtRkflw_9" version="22.1.16" type="device">
  <diagram name="Page-1" id="e7e014a7-5840-1c2e-5031-d8a46d1fe8dd">
    <mxGraphModel dx="1313" dy="706" grid="1" gridSize="10" guides="1" tooltips="1" connect="1" arrows="1" fold="1" page="1" pageScale="1" pageWidth="1169" pageHeight="826" background="none" math="0" shadow="0">
      <root>
        <mxCell id="0" />
        <mxCell id="1" parent="0" />
        <mxCell id="ubQg9M1NO3aRI4r7h2QJ-41" value="Служащией" style="rounded=0;whiteSpace=wrap;html=1;" vertex="1" parent="1">
          <mxGeometry x="70" y="360" width="120" height="60" as="geometry" />
        </mxCell>
        <mxCell id="ubQg9M1NO3aRI4r7h2QJ-42" value="Сайт военной части" style="rounded=0;whiteSpace=wrap;html=1;" vertex="1" parent="1">
          <mxGeometry x="310" y="360" width="120" height="60" as="geometry" />
        </mxCell>
        <mxCell id="ubQg9M1NO3aRI4r7h2QJ-43" value="Сервер сайта" style="rounded=0;whiteSpace=wrap;html=1;" vertex="1" parent="1">
          <mxGeometry x="525" y="360" width="120" height="60" as="geometry" />
        </mxCell>
        <mxCell id="ubQg9M1NO3aRI4r7h2QJ-44" value="База данных" style="strokeWidth=2;html=1;shape=mxgraph.flowchart.database;whiteSpace=wrap;" vertex="1" parent="1">
          <mxGeometry x="730" y="340" width="60" height="80" as="geometry" />
        </mxCell>
        <mxCell id="ubQg9M1NO3aRI4r7h2QJ-45" value="Запрос" style="html=1;verticalAlign=bottom;endArrow=block;curved=0;rounded=0;entryX=0.001;entryY=0.325;entryDx=0;entryDy=0;entryPerimeter=0;" edge="1" parent="1" target="ubQg9M1NO3aRI4r7h2QJ-42">
          <mxGeometry width="80" relative="1" as="geometry">
            <mxPoint x="190" y="380" as="sourcePoint" />
            <mxPoint x="270" y="380" as="targetPoint" />
          </mxGeometry>
        </mxCell>
        <mxCell id="ubQg9M1NO3aRI4r7h2QJ-46" value="Запрос" style="html=1;verticalAlign=bottom;endArrow=block;curved=0;rounded=0;entryX=-0.002;entryY=0.33;entryDx=0;entryDy=0;entryPerimeter=0;" edge="1" parent="1" target="ubQg9M1NO3aRI4r7h2QJ-43">
          <mxGeometry width="80" relative="1" as="geometry">
            <mxPoint x="430" y="379.83" as="sourcePoint" />
            <mxPoint x="520" y="380" as="targetPoint" />
          </mxGeometry>
        </mxCell>
        <mxCell id="ubQg9M1NO3aRI4r7h2QJ-47" value="Запрос" style="html=1;verticalAlign=bottom;endArrow=block;curved=0;rounded=0;" edge="1" parent="1">
          <mxGeometry width="80" relative="1" as="geometry">
            <mxPoint x="645" y="379.8" as="sourcePoint" />
            <mxPoint x="730" y="379.8" as="targetPoint" />
          </mxGeometry>
        </mxCell>
        <mxCell id="ubQg9M1NO3aRI4r7h2QJ-48" value="Ответ" style="html=1;verticalAlign=bottom;endArrow=block;curved=0;rounded=0;entryX=1;entryY=0.75;entryDx=0;entryDy=0;exitX=0;exitY=0.75;exitDx=0;exitDy=0;" edge="1" parent="1" source="ubQg9M1NO3aRI4r7h2QJ-42" target="ubQg9M1NO3aRI4r7h2QJ-41">
          <mxGeometry width="80" relative="1" as="geometry">
            <mxPoint x="190" y="450" as="sourcePoint" />
            <mxPoint x="270" y="450" as="targetPoint" />
          </mxGeometry>
        </mxCell>
        <mxCell id="ubQg9M1NO3aRI4r7h2QJ-49" value="Ответ" style="html=1;verticalAlign=bottom;endArrow=block;curved=0;rounded=0;entryX=1;entryY=0.75;entryDx=0;entryDy=0;exitX=0;exitY=0.75;exitDx=0;exitDy=0;" edge="1" parent="1" source="ubQg9M1NO3aRI4r7h2QJ-43" target="ubQg9M1NO3aRI4r7h2QJ-42">
          <mxGeometry width="80" relative="1" as="geometry">
            <mxPoint x="410" y="460" as="sourcePoint" />
            <mxPoint x="490" y="460" as="targetPoint" />
          </mxGeometry>
        </mxCell>
        <mxCell id="ubQg9M1NO3aRI4r7h2QJ-50" value="Ответ" style="html=1;verticalAlign=bottom;endArrow=block;curved=0;rounded=0;entryX=1;entryY=0.75;entryDx=0;entryDy=0;exitX=-0.02;exitY=0.782;exitDx=0;exitDy=0;exitPerimeter=0;" edge="1" parent="1" source="ubQg9M1NO3aRI4r7h2QJ-44">
          <mxGeometry width="80" relative="1" as="geometry">
            <mxPoint x="728.02" y="400.00000000000006" as="sourcePoint" />
            <mxPoint x="645" y="402.44" as="targetPoint" />
          </mxGeometry>
        </mxCell>
      </root>
    </mxGraphModel>
  </diagram>
</mxfile>
